<mxfile host="app.diagrams.net" agent="Mozilla/5.0 (Windows NT 10.0; Win64; x64) AppleWebKit/537.36 (KHTML, like Gecko) Chrome/130.0.0.0 Safari/537.36" version="24.8.3">
  <diagram name="Página-1" id="wynLlig4fpfrkHFRqz8N">
    <mxGraphModel dx="1778" dy="558" grid="1" gridSize="10" guides="1" tooltips="1" connect="1" arrows="1" fold="1" page="0" pageScale="1" pageWidth="827" pageHeight="1169" math="0" shadow="0">
      <root>
        <mxCell id="0" />
        <mxCell id="1" parent="0" />
        <mxCell id="tYjpwou5qkAEgIHpuX83-20" value="" style="whiteSpace=wrap;html=1;" parent="1" vertex="1">
          <mxGeometry x="-400" y="230" width="540" height="470" as="geometry" />
        </mxCell>
        <mxCell id="tYjpwou5qkAEgIHpuX83-1" value="" style="shape=ellipse;container=1;horizontal=1;horizontalStack=0;resizeParent=1;resizeParentMax=0;resizeLast=0;html=1;dashed=0;collapsible=0;" parent="1" vertex="1">
          <mxGeometry x="-360" y="420" width="140" height="80" as="geometry" />
        </mxCell>
        <mxCell id="tYjpwou5qkAEgIHpuX83-2" value="Filtrar materia por&amp;nbsp;&lt;div&gt;diferentes criterios&lt;/div&gt;" style="html=1;strokeColor=none;fillColor=none;align=center;verticalAlign=middle;rotatable=0;whiteSpace=wrap;" parent="tYjpwou5qkAEgIHpuX83-1" vertex="1">
          <mxGeometry y="30" width="140" height="20" as="geometry" />
        </mxCell>
        <mxCell id="tYjpwou5qkAEgIHpuX83-3" style="edgeStyle=orthogonalEdgeStyle;rounded=0;orthogonalLoop=1;jettySize=auto;html=1;exitX=0.5;exitY=1;exitDx=0;exitDy=0;" parent="tYjpwou5qkAEgIHpuX83-1" source="tYjpwou5qkAEgIHpuX83-2" target="tYjpwou5qkAEgIHpuX83-2" edge="1">
          <mxGeometry relative="1" as="geometry" />
        </mxCell>
        <mxCell id="tYjpwou5qkAEgIHpuX83-4" value="" style="shape=ellipse;container=1;horizontal=1;horizontalStack=0;resizeParent=1;resizeParentMax=0;resizeLast=0;html=1;dashed=0;collapsible=0;" parent="1" vertex="1">
          <mxGeometry x="-80" y="365" width="145" height="80" as="geometry" />
        </mxCell>
        <mxCell id="tYjpwou5qkAEgIHpuX83-5" value="Ingresar año" style="html=1;strokeColor=none;fillColor=none;align=center;verticalAlign=middle;rotatable=0;whiteSpace=wrap;" parent="tYjpwou5qkAEgIHpuX83-4" vertex="1">
          <mxGeometry y="30" width="145" height="20" as="geometry" />
        </mxCell>
        <mxCell id="tYjpwou5qkAEgIHpuX83-6" style="edgeStyle=orthogonalEdgeStyle;rounded=0;orthogonalLoop=1;jettySize=auto;html=1;exitX=0.5;exitY=1;exitDx=0;exitDy=0;" parent="tYjpwou5qkAEgIHpuX83-4" source="tYjpwou5qkAEgIHpuX83-5" target="tYjpwou5qkAEgIHpuX83-5" edge="1">
          <mxGeometry relative="1" as="geometry" />
        </mxCell>
        <mxCell id="tYjpwou5qkAEgIHpuX83-7" value="" style="shape=ellipse;container=1;horizontal=1;horizontalStack=0;resizeParent=1;resizeParentMax=0;resizeLast=0;html=1;dashed=0;collapsible=0;" parent="1" vertex="1">
          <mxGeometry x="-80" y="260" width="145" height="80" as="geometry" />
        </mxCell>
        <mxCell id="tYjpwou5qkAEgIHpuX83-8" value="Ingresar turno" style="html=1;strokeColor=none;fillColor=none;align=center;verticalAlign=middle;rotatable=0;whiteSpace=wrap;" parent="tYjpwou5qkAEgIHpuX83-7" vertex="1">
          <mxGeometry y="30" width="145" height="20" as="geometry" />
        </mxCell>
        <mxCell id="tYjpwou5qkAEgIHpuX83-9" style="edgeStyle=orthogonalEdgeStyle;rounded=0;orthogonalLoop=1;jettySize=auto;html=1;exitX=0.5;exitY=1;exitDx=0;exitDy=0;" parent="tYjpwou5qkAEgIHpuX83-7" source="tYjpwou5qkAEgIHpuX83-8" target="tYjpwou5qkAEgIHpuX83-8" edge="1">
          <mxGeometry relative="1" as="geometry" />
        </mxCell>
        <mxCell id="tYjpwou5qkAEgIHpuX83-10" value="" style="shape=ellipse;container=1;horizontal=1;horizontalStack=0;resizeParent=1;resizeParentMax=0;resizeLast=0;html=1;dashed=0;collapsible=0;" parent="1" vertex="1">
          <mxGeometry x="-80" y="474" width="145" height="80" as="geometry" />
        </mxCell>
        <mxCell id="tYjpwou5qkAEgIHpuX83-11" value="Ingresar comision" style="html=1;strokeColor=none;fillColor=none;align=center;verticalAlign=middle;rotatable=0;whiteSpace=wrap;" parent="tYjpwou5qkAEgIHpuX83-10" vertex="1">
          <mxGeometry y="30" width="145" height="20" as="geometry" />
        </mxCell>
        <mxCell id="tYjpwou5qkAEgIHpuX83-12" style="edgeStyle=orthogonalEdgeStyle;rounded=0;orthogonalLoop=1;jettySize=auto;html=1;exitX=0.5;exitY=1;exitDx=0;exitDy=0;" parent="tYjpwou5qkAEgIHpuX83-10" source="tYjpwou5qkAEgIHpuX83-11" target="tYjpwou5qkAEgIHpuX83-11" edge="1">
          <mxGeometry relative="1" as="geometry" />
        </mxCell>
        <mxCell id="tYjpwou5qkAEgIHpuX83-13" value="" style="shape=ellipse;container=1;horizontal=1;horizontalStack=0;resizeParent=1;resizeParentMax=0;resizeLast=0;html=1;dashed=0;collapsible=0;" parent="1" vertex="1">
          <mxGeometry x="-80" y="584" width="145" height="80" as="geometry" />
        </mxCell>
        <mxCell id="tYjpwou5qkAEgIHpuX83-14" value="Ingresar nombre" style="html=1;strokeColor=none;fillColor=none;align=center;verticalAlign=middle;rotatable=0;whiteSpace=wrap;" parent="tYjpwou5qkAEgIHpuX83-13" vertex="1">
          <mxGeometry y="30" width="145" height="20" as="geometry" />
        </mxCell>
        <mxCell id="tYjpwou5qkAEgIHpuX83-15" style="edgeStyle=orthogonalEdgeStyle;rounded=0;orthogonalLoop=1;jettySize=auto;html=1;exitX=0.5;exitY=1;exitDx=0;exitDy=0;" parent="tYjpwou5qkAEgIHpuX83-13" source="tYjpwou5qkAEgIHpuX83-14" target="tYjpwou5qkAEgIHpuX83-14" edge="1">
          <mxGeometry relative="1" as="geometry" />
        </mxCell>
        <mxCell id="tYjpwou5qkAEgIHpuX83-16" value="&amp;lt;&amp;lt;extend&amp;gt;&amp;gt;" style="html=1;verticalAlign=bottom;labelBackgroundColor=none;endArrow=open;endFill=0;dashed=1;rounded=0;exitX=0;exitY=1;exitDx=0;exitDy=0;entryX=1;entryY=0;entryDx=0;entryDy=0;" parent="1" source="tYjpwou5qkAEgIHpuX83-8" target="tYjpwou5qkAEgIHpuX83-2" edge="1">
          <mxGeometry width="160" relative="1" as="geometry">
            <mxPoint x="-255" y="330" as="sourcePoint" />
            <mxPoint x="-95" y="330" as="targetPoint" />
          </mxGeometry>
        </mxCell>
        <mxCell id="tYjpwou5qkAEgIHpuX83-17" value="&amp;lt;&amp;lt;extend&amp;gt;&amp;gt;" style="html=1;verticalAlign=bottom;labelBackgroundColor=none;endArrow=open;endFill=0;dashed=1;rounded=0;exitX=0;exitY=0.75;exitDx=0;exitDy=0;entryX=1;entryY=0.25;entryDx=0;entryDy=0;" parent="1" source="tYjpwou5qkAEgIHpuX83-5" target="tYjpwou5qkAEgIHpuX83-2" edge="1">
          <mxGeometry width="160" relative="1" as="geometry">
            <mxPoint x="-155" y="550" as="sourcePoint" />
            <mxPoint x="5" y="550" as="targetPoint" />
          </mxGeometry>
        </mxCell>
        <mxCell id="tYjpwou5qkAEgIHpuX83-18" value="&amp;lt;&amp;lt;extend&amp;gt;&amp;gt;" style="html=1;verticalAlign=bottom;labelBackgroundColor=none;endArrow=open;endFill=0;dashed=1;rounded=0;exitX=0;exitY=0.25;exitDx=0;exitDy=0;entryX=1;entryY=0.75;entryDx=0;entryDy=0;" parent="1" source="tYjpwou5qkAEgIHpuX83-11" target="tYjpwou5qkAEgIHpuX83-2" edge="1">
          <mxGeometry width="160" relative="1" as="geometry">
            <mxPoint x="-285" y="610" as="sourcePoint" />
            <mxPoint x="-125" y="610" as="targetPoint" />
          </mxGeometry>
        </mxCell>
        <mxCell id="tYjpwou5qkAEgIHpuX83-19" value="&amp;lt;&amp;lt;extend&amp;gt;&amp;gt;" style="html=1;verticalAlign=bottom;labelBackgroundColor=none;endArrow=open;endFill=0;dashed=1;rounded=0;exitX=0;exitY=0;exitDx=0;exitDy=0;entryX=1;entryY=1;entryDx=0;entryDy=0;" parent="1" source="tYjpwou5qkAEgIHpuX83-14" target="tYjpwou5qkAEgIHpuX83-2" edge="1">
          <mxGeometry width="160" relative="1" as="geometry">
            <mxPoint x="-215" y="570" as="sourcePoint" />
            <mxPoint x="-55" y="570" as="targetPoint" />
          </mxGeometry>
        </mxCell>
        <mxCell id="tYjpwou5qkAEgIHpuX83-22" value="&lt;div&gt;Usuario&lt;/div&gt;&lt;div&gt;&lt;br&gt;&lt;/div&gt;" style="shape=umlActor;verticalLabelPosition=bottom;verticalAlign=top;html=1;outlineConnect=0;" parent="1" vertex="1">
          <mxGeometry x="-506" y="432" width="30" height="60" as="geometry" />
        </mxCell>
        <mxCell id="tYjpwou5qkAEgIHpuX83-23" value="&lt;div&gt;Profesor&lt;/div&gt;" style="shape=umlActor;verticalLabelPosition=bottom;verticalAlign=top;html=1;outlineConnect=0;" parent="1" vertex="1">
          <mxGeometry x="-550" y="562" width="30" height="60" as="geometry" />
        </mxCell>
        <mxCell id="tYjpwou5qkAEgIHpuX83-24" value="Jefe de área" style="shape=umlActor;verticalLabelPosition=bottom;verticalAlign=top;html=1;outlineConnect=0;" parent="1" vertex="1">
          <mxGeometry x="-466" y="562" width="30" height="60" as="geometry" />
        </mxCell>
        <mxCell id="tYjpwou5qkAEgIHpuX83-25" value="" style="endArrow=classic;html=1;rounded=0;" parent="1" edge="1">
          <mxGeometry width="50" height="50" relative="1" as="geometry">
            <mxPoint x="-526" y="560" as="sourcePoint" />
            <mxPoint x="-496" y="520" as="targetPoint" />
          </mxGeometry>
        </mxCell>
        <mxCell id="tYjpwou5qkAEgIHpuX83-26" value="" style="endArrow=classic;html=1;rounded=0;" parent="1" edge="1">
          <mxGeometry width="50" height="50" relative="1" as="geometry">
            <mxPoint x="-456" y="560" as="sourcePoint" />
            <mxPoint x="-486" y="520" as="targetPoint" />
          </mxGeometry>
        </mxCell>
        <mxCell id="tYjpwou5qkAEgIHpuX83-27" value="" style="endArrow=none;html=1;rounded=0;entryX=0;entryY=0.5;entryDx=0;entryDy=0;" parent="1" target="tYjpwou5qkAEgIHpuX83-2" edge="1">
          <mxGeometry width="50" height="50" relative="1" as="geometry">
            <mxPoint x="-470" y="460" as="sourcePoint" />
            <mxPoint x="70" y="410" as="targetPoint" />
          </mxGeometry>
        </mxCell>
      </root>
    </mxGraphModel>
  </diagram>
</mxfile>
